<svg width="21" height="21" viewBox="0 0 21 21" fill="none" xmlns="http://www.w3.org/2000/svg">
<path fill-rule="evenodd" clip-rule="evenodd" d="M12.3939 2.20585C11.3708 1.26472 9.82933 1.26472 8.8063 2.20585L1.90218 8.55754C1.53067 8.8993 1.49721 9.48809 1.82744 9.8726C2.15767 10.257 2.72653 10.2917 3.09803 9.94991L3.40011 9.67205V14.9039C3.40006 15.7297 3.40003 16.4411 3.47403 17.0109C3.55335 17.6215 3.73222 18.2068 4.19092 18.6815C4.64961 19.1563 5.21513 19.3414 5.80509 19.4235C6.35559 19.5001 7.04302 19.5 7.84086 19.5H13.3593C14.1572 19.5 14.8446 19.5001 15.3951 19.4235C15.9851 19.3414 16.5506 19.1563 17.0093 18.6815C17.468 18.2068 17.6468 17.6215 17.7262 17.0109C17.8002 16.4411 17.8002 15.7297 17.8001 14.904V9.67205L18.1021 9.94991C18.4736 10.2917 19.0425 10.257 19.3727 9.8726C19.7029 9.48809 19.6696 8.8993 19.298 8.55754L12.3939 2.20585ZM10.6001 13.9111C10.103 13.9111 9.70009 14.3281 9.70009 14.8426V16.7056C9.70009 17.22 9.29716 17.637 8.80009 17.637C8.30304 17.637 7.90009 17.22 7.90009 16.7056V14.8426C7.90009 13.2992 9.10888 12.0482 10.6001 12.0482C12.0913 12.0482 13.3001 13.2992 13.3001 14.8426V16.7056C13.3001 17.22 12.8972 17.637 12.4001 17.637C11.903 17.637 11.5001 17.22 11.5001 16.7056V14.8426C11.5001 14.3281 11.0972 13.9111 10.6001 13.9111Z" fill="white"/>
</svg>
